<?xml version="1.0" standalone="no"?>
<!DOCTYPE svg PUBLIC "-//W3C//DTD SVG 20010904//EN"
 "http://www.w3.org/TR/2001/REC-SVG-20010904/DTD/svg10.dtd">
<svg version="1.0" xmlns="http://www.w3.org/2000/svg"
 width="124.000000pt" height="113.000000pt" viewBox="0 0 124.000000 113.000000"
 preserveAspectRatio="xMidYMid meet">

<g transform="translate(0.000000,113.000000) scale(0.100000,-0.100000)"
fill="#000000" stroke="none">
<path d="M576 1070 c-22 -11 -45 -20 -53 -20 -19 0 -73 -64 -94 -110 -16 -35
-18 -68 -17 -228 1 -190 3 -226 17 -218 15 10 40 -35 50 -90 15 -80 14 -181
-1 -191 -20 -12 -81 -33 -99 -33 -9 0 -32 -6 -50 -14 l-33 -14 48 -31 c119
-75 279 -96 433 -57 72 18 177 72 176 91 0 6 -20 20 -44 31 -78 38 -83 49 -76
164 5 78 11 106 26 126 25 32 45 117 34 141 -5 10 -7 54 -3 98 9 112 -4 217
-30 253 -12 16 -22 37 -24 47 -3 19 -15 23 -74 28 -20 2 -38 11 -48 25 -20 28
-83 29 -138 2z m107 -220 c29 -1 57 -39 57 -77 0 -21 5 -44 12 -51 8 -8 4 -14
-18 -22 -41 -16 -62 -37 -69 -71 -9 -40 -25 -36 -25 5 0 31 -4 36 -49 57 l-50
22 2 51 c2 50 3 51 47 72 25 12 48 20 52 18 4 -3 10 1 14 8 6 9 9 9 12 0 2 -7
9 -12 15 -12z m-99 -316 c11 -29 6 -83 -10 -98 -20 -21 -19 -21 -43 18 -28 44
-26 58 7 78 34 22 38 22 46 2z m218 -24 c3 -16 1 -30 -4 -30 -4 0 -8 -9 -8
-19 0 -23 -23 -34 -39 -18 -14 14 -14 54 0 62 6 4 8 13 5 21 -4 10 2 14 18 14
19 0 25 -6 28 -30z m-128 3 c8 -19 -7 -38 -22 -29 -11 7 -4 46 8 46 4 0 11 -8
14 -17z"/>
<path d="M13 473 c9 -2 23 -2 30 0 6 3 -1 5 -18 5 -17 0 -22 -2 -12 -5z"/>
</g>
</svg>
